<svg xmlns="http://www.w3.org/2000/svg" viewBox="0 0 64 64" role="img" aria-label="S favicon">
  <defs>
    <linearGradient id="g" x1="0" y1="0" x2="1" y2="1">
      <stop offset="0%" stop-color="#6AD7FF" />
      <stop offset="100%" stop-color="#1DB954" />
    </linearGradient>
  </defs>
  <rect width="64" height="64" rx="14" fill="#000000" />
  <path
    d="M44.8 18.8c-2.5-2.1-6-3.3-10.2-3.3-6.9 0-11.8 3.3-11.8 8.6 0 4.9 3.8 7.2 9.3 8.3l4.1.8c2.8.6 4 1.4 4 2.9 0 2-2.1 3.4-5.5 3.4-3.4 0-6.1-1.1-8.3-3.3l-4.6 4.7c2.7 2.9 7.2 4.8 12.7 4.8 7.8 0 12.9-3.6 12.9-9.3 0-4.7-3.2-7.2-9.1-8.4l-4.2-.8c-2.7-.5-4.1-1.2-4.1-2.8 0-1.8 1.8-3 4.7-3 2.9 0 5.2.9 7 2.4z"
    fill="url(#g)"
  />
</svg>
